{
  "accessors": [
    {
      "bufferView": 2,
      "componentType": 5126,
      "count": 28752,
      "max": [
        11.066708564758301,
        11.054449081420898,
        32.498538970947266
      ],
      "min": [
        -11.385300636291504,
        -10.793664932250977,
        1.0387680530548096
      ],
      "type": "VEC3"
    },
    {
      "bufferView": 2,
      "byteOffset": 345024,
      "componentType": 5126,
      "count": 28752,
      "max": [
        0.99950915575027466,
        0.99634724855422974,
        0.99996817111968994
      ],
      "min": [
        -0.99910777807235718,
        -0.989357590675354,
        -0.38860458135604858
      ],
      "type": "VEC3"
    },
    {
      "bufferView": 1,
      "componentType": 5126,
      "count": 28752,
      "max": [
        1,
        1
      ],
      "min": [
        0,
        0
      ],
      "type": "VEC2"
    },
    {
      "bufferView": 0,
      "componentType": 5125,
      "count": 43128,
      "max": [
        28751
      ],
      "min": [
        0
      ],
      "type": "SCALAR"
    },
    {
      "bufferView": 2,
      "byteOffset": 690048,
      "componentType": 5126,
      "count": 65532,
      "max": [
        10.835214614868164,
        10.315170288085938,
        32.184974670410156
      ],
      "min": [
        -10.955551147460938,
        -10.299654960632324,
        -10.820816040039062
      ],
      "type": "VEC3"
    },
    {
      "bufferView": 2,
      "byteOffset": 1476432,
      "componentType": 5126,
      "count": 65532,
      "max": [
        0.9999997615814209,
        0.9999997615814209,
        0.99997437000274658
      ],
      "min": [
        -0.99999988079071045,
        -0.99999988079071045,
        -0.99996674060821533
      ],
      "type": "VEC3"
    },
    {
      "bufferView": 1,
      "byteOffset": 230016,
      "componentType": 5126,
      "count": 65532,
      "max": [
        1,
        446.42959594726562
      ],
      "min": [
        0,
        -2.3172299861907959
      ],
      "type": "VEC2"
    },
    {
      "bufferView": 0,
      "byteOffset": 172512,
      "componentType": 5125,
      "count": 252975,
      "max": [
        65531
      ],
      "min": [
        0
      ],
      "type": "SCALAR"
    },
    {
      "bufferView": 2,
      "byteOffset": 2262816,
      "componentType": 5126,
      "count": 16745,
      "max": [
        10.410725593566895,
        10.315170288085938,
        22.227882385253906
      ],
      "min": [
        -10.955551147460938,
        -10.117718696594238,
        2.5566151142120361
      ],
      "type": "VEC3"
    },
    {
      "bufferView": 2,
      "byteOffset": 2463756,
      "componentType": 5126,
      "count": 16745,
      "max": [
        0.99995326995849609,
        0.99999523162841797,
        0.99985212087631226
      ],
      "min": [
        -0.99999809265136719,
        -0.99997997283935547,
        -0.99996674060821533
      ],
      "type": "VEC3"
    },
    {
      "bufferView": 1,
      "byteOffset": 754272,
      "componentType": 5126,
      "count": 16745,
      "max": [
        1,
        131.26974487304688
      ],
      "min": [
        0,
        -2.3172299861907959
      ],
      "type": "VEC2"
    },
    {
      "bufferView": 0,
      "byteOffset": 1184412,
      "componentType": 5125,
      "count": 68535,
      "max": [
        16744
      ],
      "min": [
        0
      ],
      "type": "SCALAR"
    },
    {
      "bufferView": 2,
      "byteOffset": 2664696,
      "componentType": 5126,
      "count": 1191,
      "max": [
        10.414717674255371,
        10.318772315979004,
        32.190803527832031
      ],
      "min": [
        -10.95700740814209,
        -10.30476188659668,
        1.6866120100021362
      ],
      "type": "VEC3"
    },
    {
      "bufferView": 2,
      "byteOffset": 2678988,
      "componentType": 5126,
      "count": 1191,
      "max": [
        0.99926185607910156,
        0.99943757057189941,
        0.99405598640441895
      ],
      "min": [
        -0.99498611688613892,
        -0.9874911904335022,
        -0.98356705904006958
      ],
      "type": "VEC3"
    },
    {
      "bufferView": 0,
      "byteOffset": 1458552,
      "componentType": 5125,
      "count": 1191,
      "max": [
        1190
      ],
      "min": [
        0
      ],
      "type": "SCALAR"
    }
  ],
  "asset": {
    "extras": {
      "author": "Thureb (https://sketchfab.com/Thureb)",
      "license": "CC-BY-4.0 (http://creativecommons.org/licenses/by/4.0/)",
      "source": "https://sketchfab.com/3d-models/tree-e17b93edac0c434b8a8cca6991e44069",
      "title": "Tree"
    },
    "generator": "Sketchfab-10.25.0",
    "version": "2.0"
  },
  "bufferViews": [
    {
      "buffer": 0,
      "byteLength": 1463316,
      "byteOffset": 0,
      "name": "floatBufferViews",
      "target": 34963
    },
    {
      "buffer": 0,
      "byteLength": 888232,
      "byteOffset": 1463316,
      "byteStride": 8,
      "name": "floatBufferViews",
      "target": 34962
    },
    {
      "buffer": 0,
      "byteLength": 2693280,
      "byteOffset": 2351548,
      "byteStride": 12,
      "name": "floatBufferViews",
      "target": 34962
    }
  ],
  "buffers": [
    {
      "byteLength": 5044828,
      "uri": "scene.bin"
    }
  ],
  "materials": [
    {
      "doubleSided": true,
      "emissiveFactor": [
        0,
        0,
        0
      ],
      "name": "Material.001",
      "pbrMetallicRoughness": {
        "baseColorFactor": [
          0.010995,
          0.47984100000000002,
          0.002202,
          1
        ],
        "metallicFactor": 0,
        "roughnessFactor": 0.80635083268962915
      }
    },
    {
      "doubleSided": true,
      "emissiveFactor": [
        0,
        0,
        0
      ],
      "name": "Material.003",
      "pbrMetallicRoughness": {
        "baseColorFactor": [
          0.80000000000000004,
          0.80000000000000004,
          0.80000000000000004,
          1
        ],
        "metallicFactor": 0,
        "roughnessFactor": 0.90551706484040995
      }
    },
    {
      "doubleSided": true,
      "emissiveFactor": [
        0,
        0,
        0
      ],
      "name": "None",
      "pbrMetallicRoughness": {
        "baseColorFactor": [
          0.80000000000000004,
          0.80000000000000004,
          0.80000000000000004,
          1
        ],
        "metallicFactor": 0,
        "roughnessFactor": 0.62170335639872965
      }
    }
  ],
  "meshes": [
    {
      "primitives": [
        {
          "attributes": {
            "NORMAL": 1,
            "POSITION": 0,
            "TEXCOORD_0": 2
          },
          "indices": 3,
          "material": 0,
          "mode": 4
        }
      ]
    },
    {
      "primitives": [
        {
          "attributes": {
            "NORMAL": 5,
            "POSITION": 4,
            "TEXCOORD_0": 6
          },
          "indices": 7,
          "material": 1,
          "mode": 4
        }
      ]
    },
    {
      "primitives": [
        {
          "attributes": {
            "NORMAL": 9,
            "POSITION": 8,
            "TEXCOORD_0": 10
          },
          "indices": 11,
          "material": 1,
          "mode": 4
        }
      ]
    },
    {
      "primitives": [
        {
          "attributes": {
            "NORMAL": 13,
            "POSITION": 12
          },
          "indices": 14,
          "material": 2,
          "mode": 4
        }
      ]
    }
  ],
  "nodes": [
    {
      "children": [
        1
      ],
      "name": "RootNode (gltf orientation matrix)",
      "rotation": [
        -0.70710678118654746,
        -0,
        -0,
        0.70710678118654757
      ]
    },
    {
      "children": [
        2
      ],
      "name": "RootNode (model correction matrix)"
    },
    {
      "children": [
        3,
        4,
        5,
        6
      ],
      "name": "Arbre 1.obj.cleaner.materialmerger.gles"
    },
    {
      "mesh": 0,
      "name": ""
    },
    {
      "mesh": 1,
      "name": ""
    },
    {
      "mesh": 2,
      "name": ""
    },
    {
      "mesh": 3,
      "name": ""
    }
  ],
  "scene": 0,
  "scenes": [
    {
      "name": "OSG_Scene",
      "nodes": [
        0
      ]
    }
  ]
}

